# xmcd CD database file
#
# Track frame offsets:
#	187
#	33450
#	49125
#	68625
#	108112
#	132075
#	150675
#	176325
#	206812
#	231900
#
# Disc length: 3340 seconds
#
# Revision: 3
# Processed by: cddbd v1.5.2PL0 Copyright (c) Steve Scherf et al.
# Submitted via: CDex 1.70beta2
#
DISCID=810d0a0a
DTITLE=小泉今日子 - '89-'99 collection（KOIZUMIX PRODUCTION）
DYEAR=1998
DGENRE=Pop
TTITLE0=Simulation <Club Mix> Remixed by 武内亨
TTITLE1=No No No <Flipper's and HF Mix> Remixed by フリッパーズ・ギター＋藤原ヒロシ
TTITLE2=Drive <London Drive Mix> Remixed by Young Disciples
TTITLE3=Sexy Heaven <King Street Sound Club Mix> Remixed by Biaze
TTITLE4=華麗なる休暇(Les Vacances de Mademoiselle KyonKyon) Remixed by The Rapino Brothers
TTITLE5=女性上位万歳 <Female Funk Up Mix> Remixed by 高木完
TTITLE6=ラブバラ (Love-Ballad) <New Mix> Remixed by 藤原ヒロシ
TTITLE7=天使のささやき <Massive Sounds Club Mix> Remixed by Bobby Konders
TTITLE8=ドライブ <GOTA Re-mix> Remixed by 屋敷豪太
TTITLE9=La La La ... <Flipper's and HF Mix> Remixed by フリッパーズ・ギター＋藤原ヒロシ
EXTD=YEAR: 1998
EXTT0=
EXTT1=
EXTT2=
EXTT3=
EXTT4=
EXTT5=
EXTT6=
EXTT7=
EXTT8=
EXTT9=
PLAYORDER=
